# xmcd
#
# Track frame offsets:
#	150
#	15242
#	30770
#	44634
#	62595
#	80569
#	95297
#	109913
#	127118
#	147036
#	165532
#	182157
#	195167
#	216471
#	235209
#
# Disc length: 3337 seconds
#
# Revision: 0
# Processed by: cddbd v1.5.2PL0 Copyright (c) Steve Scherf et al.
# Submitted via: audiograbber 1.83.01
#
DISCID=c20d070f
DTITLE=JonesTM - HC200807
DYEAR=2007
DGENRE=Country
TTITLE0=Jennifer Hanson - '73
TTITLE1=Clint Black - Long Cool Woman
TTITLE2=Emily West - Rocks In Your Shoes
TTITLE3=Chuck Wicks - Stealing Cinderella [Acoustic]
TTITLE4=Montgomery Gentry - Back When I Knew It All
TTITLE5=Janet Jackson - Luv
TTITLE6=Trin-i-tee 5:7 - I Will Lift [Main Radio Edit]
TTITLE7=Randy Jackson Feat. Barbi Esco - My R&B [Album Version]
TTITLE8=Boyz II Men - Just My Imagination (Running Away With Me)
TTITLE9=Raheem Devaughn - Customer [Album Version]
TTITLE10=Steve Oliver - On The Upside [Radio Edit]
TTITLE11=Marc Macisso - Heaven [Album Version]
TTITLE12=Patrick Cooper - Leavin' [Album Version]
TTITLE13=JWB - Midday [Album Version]
TTITLE14=Novello - Baila [Radio Edit]
EXTD=
EXTT0=
EXTT1=
EXTT2=
EXTT3=
EXTT4=
EXTT5=
EXTT6=
EXTT7=
EXTT8=
EXTT9=
EXTT10=
EXTT11=
EXTT12=
EXTT13=
EXTT14=
PLAYORDER=
